<svg width="896" height="183" viewBox="0 0 896 183" fill="none" xmlns="http://www.w3.org/2000/svg">
<g clip-path="url(#clip0_55_4487)">
<path d="M59.3414 144.829C47.2219 144.829 36.707 142.271 27.7966 137.169C18.8861 132.061 12.0274 124.789 7.21382 115.341C2.4068 105.899 0 94.7025 0 81.7566C0 68.8108 2.4068 57.4363 7.2204 47.9948C12.034 38.5533 18.8927 31.2487 27.8031 26.0808C36.7136 20.913 47.2285 18.3291 59.348 18.3291C71.4675 18.3291 82.16 20.913 91.0704 26.0808C99.9808 31.2487 106.846 38.5533 111.653 47.9948C116.46 57.4363 118.867 68.6924 118.867 81.7566C118.867 94.8208 116.46 105.899 111.653 115.341C106.84 124.789 99.9808 132.061 91.0704 137.169C82.16 142.271 71.5858 144.829 59.348 144.829H59.3414ZM59.3414 124.874C66.7065 124.874 72.9734 123.152 78.1421 119.707C83.3108 116.261 87.2892 111.304 90.0774 104.828C92.8656 98.3581 94.2663 90.6655 94.2663 81.7566C94.2663 72.8477 92.8656 64.9776 90.0774 58.5014C87.2826 52.0318 83.3108 47.0414 78.1421 43.5371C72.9734 40.0327 66.7065 38.2772 59.3414 38.2772C51.9763 38.2772 45.8541 40.0327 40.6328 43.5371C35.4049 47.0414 31.4265 52.0318 28.6909 58.5014C25.9553 64.9776 24.5941 72.7294 24.5941 81.7566C24.5941 90.7839 25.9553 98.3581 28.6909 104.828C31.4199 111.304 35.4049 116.261 40.6328 119.707C45.8607 123.152 52.0947 124.874 59.3414 124.874Z" fill="white"/>
<path d="M155.035 181.359H132.223V46.6537H155.035V181.353V181.359ZM180.161 43.9843C188.48 43.9843 195.635 46.0028 201.638 50.0398C207.636 54.0767 212.272 59.8363 215.54 67.3185C218.808 74.8006 220.439 83.7753 220.439 94.2227C220.439 110.495 216.783 122.994 209.477 131.726C202.171 140.457 192.399 144.823 180.161 144.823C169.587 144.823 161.209 140.49 155.035 131.811C148.86 123.145 145.769 110.607 145.769 94.2161C145.769 83.8805 147.196 74.9453 150.05 67.3974C152.904 59.856 156.909 54.0636 162.077 50.0266C167.246 45.9897 173.276 43.9712 180.168 43.9712L180.161 43.9843ZM176.065 62.8673C169.291 62.8673 164.096 65.5433 160.473 70.8886C156.85 76.234 155.035 84.012 155.035 94.2293C155.035 104.447 156.876 112.284 160.558 117.748C164.241 123.211 169.41 125.94 176.065 125.94C182.719 125.94 188.151 123.211 191.656 117.748C195.161 112.284 196.917 104.447 196.917 94.2293C196.917 84.012 195.135 76.3852 191.571 70.9741C188.006 65.5696 182.838 62.8673 176.065 62.8673Z" fill="white"/>
<path d="M291.361 102.066H298.673C298.193 111.685 296.385 119.68 293.235 126.031C290.085 132.383 285.988 137.11 280.938 140.194C275.888 143.284 270.094 144.829 263.564 144.829C257.39 144.829 251.892 143.547 247.078 140.996C242.265 138.438 238.549 134.612 235.939 129.503C233.322 124.394 232.02 118.036 232.02 110.436V46.6533H254.832V105.807C254.832 110.087 255.423 113.736 256.614 116.767C257.797 119.792 259.612 122.08 262.052 123.625C264.485 125.17 267.602 125.939 271.403 125.939C274.494 125.939 277.256 125.315 279.689 124.072C282.122 122.823 284.2 121.074 285.929 118.812C287.652 116.557 288.987 113.999 289.941 111.153C290.887 108.299 291.368 105.275 291.368 102.066H291.361ZM314.173 46.6533V142.153H291.361V46.6533H314.173Z" fill="white"/>
<path d="M349.282 72.3149C349.282 75.5168 350.354 77.9561 352.491 79.6195C354.628 81.283 357.508 82.5585 361.132 83.4527C364.755 84.3403 368.707 85.1161 372.981 85.767C377.256 86.4245 381.537 87.2792 385.811 88.3509C390.092 89.4226 394.005 90.9086 397.576 92.8021C401.14 94.7022 404.02 97.319 406.216 100.639C408.413 103.966 409.511 108.424 409.511 113.999C409.511 120.055 407.755 125.407 404.25 130.035C400.745 134.671 395.964 138.293 389.901 140.904C383.845 143.514 376.776 144.822 368.694 144.822C356.93 144.822 347.099 142.061 339.201 136.538C331.296 131.015 326.516 122.488 324.852 110.968H347.664C348.493 116.077 350.84 120.055 354.7 122.902C358.56 125.755 363.459 127.182 369.404 127.182C375.349 127.182 379.38 126.084 382.234 123.888C385.088 121.692 386.515 118.871 386.515 115.426C386.515 112.336 385.443 109.962 383.306 108.299C381.169 106.636 378.341 105.393 374.842 104.558C371.337 103.73 367.477 102.954 363.256 102.244C359.04 101.534 354.852 100.672 350.696 99.6597C346.533 98.6537 342.699 97.1612 339.201 95.2085C335.696 93.2492 332.875 90.5732 330.738 87.1872C328.6 83.8011 327.528 79.3171 327.528 73.7351C327.528 68.5081 328.896 63.669 331.625 59.2178C334.354 54.7666 338.458 51.111 343.922 48.2575C349.387 45.4041 356.279 43.9839 364.597 43.9839C371.962 43.9839 378.551 45.1674 384.378 47.5475C390.197 49.9275 395.037 53.6029 398.897 58.5932C402.757 63.5835 405.105 70.0597 405.934 78.0153H383.122C382.168 72.1965 380.064 68.0347 376.796 65.5428C373.521 63.0509 369.161 61.8017 363.696 61.8017C359.179 61.8017 355.647 62.8077 353.089 64.8261C350.531 66.8446 349.255 69.3431 349.255 72.3083L349.282 72.3149Z" fill="white"/>
<path d="M423.945 142.159V20.998H448.007V142.159H423.945ZM467.965 122.737C475.81 122.737 482.491 121.107 488.015 117.839C493.538 114.571 497.786 109.883 500.759 103.762C503.725 97.6476 505.211 90.3101 505.211 81.7562C505.211 73.2023 503.725 65.661 500.759 59.4872C497.786 53.3134 493.545 48.5861 488.015 45.3184C482.491 42.0507 475.81 40.4201 467.965 40.4201H441.411V20.998H467.965C480.676 20.998 491.638 23.4373 500.844 28.3027C510.051 33.1747 517.153 40.1243 522.137 49.145C527.128 58.1788 529.621 69.0404 529.621 81.7496C529.621 94.4588 527.128 105.149 522.137 114.177C517.146 123.204 510.051 130.121 500.844 134.934C491.638 139.746 480.676 142.146 467.965 142.146H441.411V122.724H467.965V122.737Z" fill="white"/>
<path d="M543.161 142.16V46.6533H565.973V142.153H543.161V142.16Z" fill="white"/>
<path d="M616.581 142.515C608.499 142.515 601.522 140.523 595.643 136.545C589.765 132.567 585.247 126.926 582.097 119.615C578.947 112.31 577.375 103.552 577.375 93.3349C577.375 77.4172 580.907 65.2143 587.983 56.7196C595.045 48.2315 604.58 43.9775 616.581 43.9775C628.582 43.9775 637.046 48.2512 643.043 56.8051C649.04 65.3589 652.039 77.5355 652.039 93.3283C652.039 109.121 648.83 121.574 642.418 129.944C636 138.32 627.386 142.508 616.575 142.508L616.581 142.515ZM665.585 145.184C665.585 153.856 663.77 161.069 660.147 166.835C656.524 172.595 651.592 176.927 645.358 179.847C639.124 182.753 632.022 184.212 624.065 184.212C612.3 184.212 602.443 181.477 594.486 176.02C586.529 170.556 581.716 162.121 580.052 150.72H603.041C603.758 155.71 605.981 159.537 609.723 162.213C613.464 164.889 618.127 166.224 623.71 166.224C629.293 166.224 634.014 164.679 637.519 161.595C641.024 158.505 642.773 153.159 642.773 145.559V46.6535H665.585V145.184ZM621.75 123.625C628.517 123.625 633.718 121.041 637.342 115.873C640.958 110.706 642.773 103.197 642.773 93.3349C642.773 83.4726 640.932 76.0825 637.25 70.7963C633.567 65.5102 628.398 62.8671 621.743 62.8671C615.089 62.8671 609.802 65.4839 606.237 70.7109C602.673 75.9379 600.891 83.4792 600.891 93.3349C600.891 103.191 602.673 110.561 606.237 115.788C609.802 121.015 614.97 123.625 621.743 123.625H621.75Z" fill="white"/>
<path d="M681.624 142.16V46.6533H704.436V142.153H681.624V142.16Z" fill="white"/>
<path d="M711.025 64.294V46.6537H766.269V64.294H711.025ZM723.322 112.402V24.7397H746.134V110.443C746.134 115.433 747.14 119.233 749.159 121.844C751.178 124.454 755.334 125.762 761.633 125.762H765.914V142.508C764.724 143.225 762.883 143.784 760.391 144.205C757.898 144.619 755.103 144.829 752.013 144.829C742.267 144.829 735.053 142.101 730.358 136.63C725.663 131.167 723.322 123.093 723.322 112.402Z" fill="white"/>
<path d="M836.488 84.0707V98.1475C827.696 98.1475 820.508 98.5946 814.925 99.4822C809.342 100.37 805.009 101.652 801.918 103.315C798.827 104.979 796.664 106.879 795.414 109.016C794.165 111.153 793.547 113.467 793.547 115.965C793.547 119.647 794.908 122.56 797.643 124.697C800.372 126.834 803.996 127.905 808.514 127.905C813.031 127.905 817.358 126.774 821.166 124.519C824.967 122.264 827.965 119.174 830.168 115.255C832.365 111.337 833.463 106.997 833.463 102.244H842.196C841.722 109.844 840.262 116.353 837.829 121.758C835.389 127.162 832.305 131.554 828.564 134.947C824.822 138.333 820.692 140.825 816.175 142.429C811.657 144.033 807.146 144.835 802.635 144.835C796.335 144.835 790.785 143.797 785.971 141.712C781.164 139.635 777.39 136.545 774.654 132.448C771.918 128.346 770.557 123.27 770.557 117.215C770.557 110.686 772.366 105.071 775.995 100.376C779.619 95.6885 785.11 92.092 792.481 89.6002C799.13 87.2266 805.936 85.7144 812.887 85.0569C819.837 84.406 827.702 84.0773 836.501 84.0773L836.488 84.0707ZM796.749 78.0153H773.76C774.825 70.8881 777.173 64.7998 780.796 59.7504C784.419 54.7075 789.226 50.8151 795.23 48.08C801.227 45.3515 808.27 43.9839 816.345 43.9839C825.138 43.9839 832.529 45.5881 838.533 48.7901C844.53 51.9986 849.015 56.4498 851.987 62.1502C854.953 67.8571 856.439 74.386 856.439 81.7498V118.806C856.439 124.631 856.709 129.352 857.241 132.974C857.781 136.597 858.458 139.654 859.293 142.153H835.593C834.64 139.779 834.048 136.781 833.811 133.152C833.568 129.529 833.456 125.88 833.456 122.198V81.7498C833.456 75.576 831.944 70.8816 828.912 67.6731C825.887 64.4645 821.218 62.8603 814.925 62.8603C809.46 62.8603 805.245 64.2607 802.273 67.0484C799.301 69.8428 797.459 73.4918 796.749 78.0087V78.0153Z" fill="white"/>
<path d="M873.195 142.159V13.8711H896.007V142.159H873.195Z" fill="white"/>
<path d="M566.236 12.3721H543.424V34.4701H566.236V12.3721Z" fill="white"/>
<path d="M704.432 12.3721H681.62V34.4701H704.432V12.3721Z" fill="white"/>
</g>
<defs>
<clipPath id="clip0_55_4487">
<rect width="896" height="184.206" fill="white"/>
</clipPath>
</defs>
</svg>
